<svg xmlns="http://www.w3.org/2000/svg" width="44" height="44" viewBox="0 0 44 44">
  <g id="Group_163902" data-name="Group 163902" transform="translate(-9 -61)">
    <rect id="Rectangle_4039" data-name="Rectangle 4039" width="44" height="44" transform="translate(9 61)" fill="#fff" opacity="0"/>
    <path id="noun-back-453801" d="M76.7,96.933a.949.949,0,0,0,.2,1.035l7.523,7.52a.946.946,0,1,0,1.339-1.338l-5.908-5.905H99.932a.947.947,0,0,0,0-1.894H79.86l5.908-5.9a.948.948,0,0,0-1.339-1.341L76.9,96.628c-.018.018-.023.041-.039.06a.927.927,0,0,0-.163.245Z" transform="translate(-57.754 -14.298)" fill="#fff"/>
  </g>
</svg>
