<svg xmlns="http://www.w3.org/2000/svg" width="80.817" height="80.899" viewBox="0 0 80.817 80.899">
  <g id="Group_162610" data-name="Group 162610" transform="translate(-5424.769 -3775.5)">
    <path id="Path_439" data-name="Path 439" d="M160.161,49.693a6.094,6.094,0,0,0-3.821,1.273L132.056,26.6a6.652,6.652,0,0,0,1.273-3.821,6.538,6.538,0,0,0-13.076,0,6.614,6.614,0,0,0,1.1,3.651L96.989,50.8a6.615,6.615,0,0,0-3.651-1.1,6.538,6.538,0,0,0,0,13.076,6.613,6.613,0,0,0,3.651-1.1l24.284,24.284a6.615,6.615,0,0,0-1.1,3.651,6.538,6.538,0,0,0,13.076,0,6.094,6.094,0,0,0-1.273-3.821l24.284-24.284a6.652,6.652,0,0,0,3.821,1.273,6.541,6.541,0,0,0,6.538-6.538,6.417,6.417,0,0,0-6.453-6.538ZM126.707,83.062a6.66,6.66,0,0,0-4.33,1.613L98.263,60.561a6.5,6.5,0,0,0,1.613-4.33,6.66,6.66,0,0,0-1.613-4.33l24.2-24.2a6.5,6.5,0,0,0,4.33,1.613,6.419,6.419,0,0,0,4.161-1.528l24.2,24.2a6.591,6.591,0,0,0-1.528,4.161,6.419,6.419,0,0,0,1.528,4.161L130.868,84.59a6.416,6.416,0,0,0-4.161-1.528Zm0-65.125a4.838,4.838,0,0,1,4.84,4.84,4.84,4.84,0,1,1-9.68,0A4.838,4.838,0,0,1,126.707,17.937ZM88.413,56.231a4.84,4.84,0,0,1,9.68,0,5,5,0,0,1-1.7,3.736,5.118,5.118,0,0,1-3.141,1.189,4.967,4.967,0,0,1-4.841-4.925Zm38.294,38.294a4.838,4.838,0,0,1-4.84-4.84,4.66,4.66,0,0,1,1.189-3.141,5,5,0,0,1,3.736-1.7,4.838,4.838,0,0,1,4.84,4.84,4.967,4.967,0,0,1-4.925,4.84Zm33.454-33.454A5.181,5.181,0,0,1,156.85,59.8a4.827,4.827,0,1,1,8.067-3.566,4.715,4.715,0,0,1-4.755,4.84Z" transform="translate(5338.469 3759.761)" fill="#7aafc4" stroke="#7aafc4" stroke-width="1"/>
    <path id="Path_440" data-name="Path 440" d="M311.906,203.086a6.623,6.623,0,1,0-6.708-6.708,6.778,6.778,0,0,0,6.708,6.708Zm0-11.632a4.925,4.925,0,1,1-5.01,4.925A5,5,0,0,1,311.906,191.453Z" transform="translate(5153.185 3612.482)" fill="#7aafc4" stroke="#7aafc4" stroke-width="1"/>
    <path id="Path_441" data-name="Path 441" d="M303.916,287.84a8.244,8.244,0,0,0-8.236,8.236V299.9a.8.8,0,0,0,.849.849h14.689a.8.8,0,0,0,.849-.849v-3.821a8.087,8.087,0,0,0-2.377-5.774,7.832,7.832,0,0,0-5.774-2.463Zm6.538,11.208H297.378v-2.972a6.541,6.541,0,0,1,6.538-6.538,6.412,6.412,0,0,1,4.585,1.868,6.561,6.561,0,0,1,1.868,4.585v3.057Z" transform="translate(5161.26 3529.341)" fill="#7aafc4" stroke="#7aafc4" stroke-width="1"/>
  </g>
</svg>
