<svg xmlns="http://www.w3.org/2000/svg" xmlns:xlink="http://www.w3.org/1999/xlink" width="40" height="40" viewBox="0 0 40 40">
  <defs>
    <linearGradient id="linear-gradient" x1="0.5" x2="0.5" y2="1" gradientUnits="objectBoundingBox">
      <stop offset="0" stop-color="#0b83b2"/>
      <stop offset="1" stop-color="#5aa2c6"/>
    </linearGradient>
  </defs>
  <g id="Group_162743" data-name="Group 162743" transform="translate(-24 -27)">
    <circle id="Ellipse_48" data-name="Ellipse 48" cx="20" cy="20" r="20" transform="translate(24 27)" fill="url(#linear-gradient)"/>
    <g id="Group_162610" data-name="Group 162610" transform="translate(-5394.136 -3741.881)">
      <path id="Path_439" data-name="Path 439" d="M110.453,27.025a1.965,1.965,0,0,0-1.232.411l-7.83-7.857a2.145,2.145,0,0,0,.411-1.232,2.108,2.108,0,0,0-4.216,0,2.132,2.132,0,0,0,.356,1.177l-7.857,7.857a2.133,2.133,0,0,0-1.177-.356,2.108,2.108,0,0,0,0,4.216,2.132,2.132,0,0,0,1.177-.356l7.83,7.83a2.133,2.133,0,0,0-.356,1.177,2.108,2.108,0,1,0,4.216,0,1.965,1.965,0,0,0-.411-1.232l7.83-7.83a2.145,2.145,0,0,0,1.232.411,2.109,2.109,0,0,0,2.108-2.108,2.069,2.069,0,0,0-2.081-2.108ZM99.667,37.784a2.147,2.147,0,0,0-1.4.52L90.5,30.529a2.094,2.094,0,0,0,.52-1.4,2.147,2.147,0,0,0-.52-1.4l7.8-7.8a2.094,2.094,0,0,0,1.4.52,2.07,2.07,0,0,0,1.342-.493l7.8,7.8a2.125,2.125,0,0,0-.493,1.342,2.07,2.07,0,0,0,.493,1.342l-7.83,7.829a2.069,2.069,0,0,0-1.342-.493Zm0-21a1.56,1.56,0,0,1,1.561,1.561,1.561,1.561,0,0,1-3.121,0A1.56,1.56,0,0,1,99.667,16.786ZM87.32,29.133a1.561,1.561,0,0,1,3.121,0,1.613,1.613,0,0,1-.547,1.2,1.65,1.65,0,0,1-1.013.383,1.6,1.6,0,0,1-1.561-1.588ZM99.667,41.48a1.56,1.56,0,0,1-1.561-1.561,1.5,1.5,0,0,1,.383-1.013,1.613,1.613,0,0,1,1.2-.547,1.56,1.56,0,0,1,1.561,1.561,1.6,1.6,0,0,1-1.588,1.56Zm10.787-10.787a1.671,1.671,0,0,1-1.068-.411,1.556,1.556,0,1,1,2.6-1.15,1.52,1.52,0,0,1-1.533,1.56Z" transform="translate(5338.469 3759.761)" fill="#fff" stroke="#fff" stroke-width="0.5"/>
      <path id="Path_440" data-name="Path 440" d="M307.361,194.111a2.136,2.136,0,1,0-2.163-2.163,2.185,2.185,0,0,0,2.163,2.163Zm0-3.751a1.588,1.588,0,1,1-1.615,1.588A1.613,1.613,0,0,1,307.361,190.36Z" transform="translate(5130.748 3594.647)" fill="#fff" stroke="#fff" stroke-width="0.5"/>
      <path id="Path_441" data-name="Path 441" d="M298.336,287.84a2.658,2.658,0,0,0-2.656,2.656v1.232a.259.259,0,0,0,.274.274h4.736a.259.259,0,0,0,.274-.274V290.5a2.608,2.608,0,0,0-.767-1.862A2.525,2.525,0,0,0,298.336,287.84Zm2.108,3.614h-4.216V290.5a2.109,2.109,0,0,1,2.108-2.108,2.068,2.068,0,0,1,1.478.6,2.115,2.115,0,0,1,.6,1.478v.986Z" transform="translate(5139.8 3501.438)" fill="#fff" stroke="#fff" stroke-width="0.5"/>
    </g>
  </g>
</svg>
