<svg xmlns="http://www.w3.org/2000/svg" width="94.268" height="82.454" viewBox="0 0 94.268 82.454">
  <g id="Group_162650" data-name="Group 162650" transform="translate(-5275.522 -3918)">
    <path id="Path_490" data-name="Path 490" d="M442.968,377.17a7.1,7.1,0,0,1-5-2.041,1.841,1.841,0,1,1,2.587-2.621,3.448,3.448,0,0,0,4.826,0,3.282,3.282,0,0,0,0-4.69,1.841,1.841,0,1,1,2.587-2.621,6.966,6.966,0,0,1,0,9.932,7.1,7.1,0,0,1-5,2.041Z" transform="translate(4901.792 3610.613)" fill="#7aafc4"/>
    <path id="Path_491" data-name="Path 491" d="M436.795,275.626a7.1,7.1,0,0,1-5-2.04l-13.914-13.733a1.841,1.841,0,0,1,2.587-2.621l13.913,13.733a3.447,3.447,0,0,0,4.824,0,3.281,3.281,0,0,0,0-4.692l-18.229-17.992a1.841,1.841,0,1,1,2.587-2.621l18.228,17.992a6.964,6.964,0,0,1,0,9.934,7.09,7.09,0,0,1-5,2.04Z" transform="translate(4918.074 3707.511)" fill="#7aafc4"/>
    <path id="Path_492" data-name="Path 492" d="M396.856,379.25a7.089,7.089,0,0,1-5-2.039,1.841,1.841,0,1,1,2.586-2.621,3.445,3.445,0,0,0,4.823,0,3.283,3.283,0,0,0,0-4.693l-7.014-6.922a1.841,1.841,0,1,1,2.587-2.621l7.014,6.923a6.966,6.966,0,0,1,0,9.933,7.1,7.1,0,0,1-5,2.042Z" transform="translate(4939.168 3614.541)" fill="#7aafc4"/>
    <path id="Path_493" data-name="Path 493" d="M160.107,239.585a1.834,1.834,0,0,1-1.375-.617A20.861,20.861,0,0,1,154,230.209c-.434-1.749-.706-3.148-.925-4.273-.609-3.126-.792-4.071-3.046-6.295a1.841,1.841,0,1,1,2.587-2.621c3.063,3.024,3.421,4.867,4.073,8.212.222,1.14.473,2.432.885,4.09a17.184,17.184,0,0,0,3.908,7.2,1.841,1.841,0,0,1-1.374,3.066Z" transform="translate(5135.201 3730.727)" fill="#7aafc4"/>
    <path id="Path_494" data-name="Path 494" d="M269.554,128.707a1.829,1.829,0,0,1-1.019-.309c-2.316-1.542-4.955-2.179-9.745-3.338l-.435-.105c-2.974-.715-5.122-1.23-8.127-4.2a1.841,1.841,0,0,1,2.587-2.621c2.276,2.247,3.568,2.557,6.4,3.238l.441.106c5.028,1.216,8.062,1.95,10.92,3.852a1.841,1.841,0,0,1-1.022,3.374Z" transform="translate(5053.978 3810.883)" fill="#7aafc4"/>
    <path id="Path_495" data-name="Path 495" d="M519.7,236.372a1.841,1.841,0,0,1-1.294-3.151c1.59-1.569,1.854-2.8,2.079-5.221.517-5.594.776-8.4,3.869-11.455l5.714-5.639a1.841,1.841,0,1,1,2.586,2.62l-5.713,5.639c-2.052,2.025-2.272,3.574-2.79,9.173-.253,2.735-.646,5.024-3.157,7.5a1.842,1.842,0,0,1-1.294.53Z" transform="translate(4836.589 3735.684)" fill="#7aafc4"/>
    <path id="Path_496" data-name="Path 496" d="M108.54,98.649a1.832,1.832,0,0,1-1.293-.531l-5.584-5.511a1.841,1.841,0,1,1,2.587-2.621l4.289,4.234,23.245-22.987-5.939-5.862a1.841,1.841,0,0,1,2.587-2.621l7.265,7.171a1.841,1.841,0,0,1,0,2.62L109.834,98.117a1.838,1.838,0,0,1-1.295.532Z" transform="translate(5174.407 3855.781)" fill="#7aafc4"/>
    <path id="Path_497" data-name="Path 497" d="M190.228,316.88a6.821,6.821,0,0,1-4.8-1.961,6.711,6.711,0,0,1,0-9.553l3.122-3.082a6.866,6.866,0,0,1,9.61,0,6.711,6.711,0,0,1,0,9.553l-3.122,3.082A6.822,6.822,0,0,1,190.228,316.88Zm.9-11.975-3.122,3.081a3.029,3.029,0,0,0,0,4.312,3.17,3.17,0,0,0,4.437,0l3.122-3.081a3.029,3.029,0,0,0,0-4.312A3.171,3.171,0,0,0,191.131,304.906Z" transform="translate(5107.684 3662.77)" fill="#7aafc4"/>
    <path id="Path_498" data-name="Path 498" d="M301.528,426.73a6.819,6.819,0,0,1-4.8-1.961,6.712,6.712,0,0,1,0-9.554l3.121-3.081a6.867,6.867,0,0,1,9.611,0,6.713,6.713,0,0,1,0,9.553l-3.122,3.082a6.822,6.822,0,0,1-4.8,1.961Zm.9-11.975-3.122,3.081a3.029,3.029,0,0,0,0,4.312,3.171,3.171,0,0,0,4.436,0l3.122-3.081a3.031,3.031,0,0,0,0-4.312A3.171,3.171,0,0,0,302.431,414.755Z" transform="translate(5017.463 3573.725)" fill="#7aafc4"/>
    <path id="Path_499" data-name="Path 499" d="M227.311,341.319a6.819,6.819,0,0,1-4.8-1.961,6.711,6.711,0,0,1,0-9.553l6-5.921a6.865,6.865,0,0,1,9.61,0,6.712,6.712,0,0,1,0,9.553l-6,5.921A6.822,6.822,0,0,1,227.311,341.319Zm6-15.719a3.145,3.145,0,0,0-2.219.905l-6,5.921a3.031,3.031,0,0,0,0,4.312,3.171,3.171,0,0,0,4.437,0l6-5.921a3.029,3.029,0,0,0,0-4.312A3.146,3.146,0,0,0,233.31,325.6ZM229.8,325.2h0Z" transform="translate(5077.624 3645.261)" fill="#7aafc4"/>
    <path id="Path_500" data-name="Path 500" d="M288.068,130.187a6.821,6.821,0,0,1-4.8-1.961,6.712,6.712,0,0,1,0-9.554l12.72-12.28a13.367,13.367,0,0,1,8.289-3.812c5.689-.513,7.262-.73,9.322-2.764l2.837-2.8a1.841,1.841,0,0,1,2.586,2.621l-2.836,2.8c-3.086,3.045-5.925,3.3-11.579,3.81a9.745,9.745,0,0,0-6.047,2.78l-12.721,12.281a3.028,3.028,0,0,0,.015,4.3,3.168,3.168,0,0,0,4.437,0l4.583-4.522c3.319-3.277,7-2.572,10.238-1.951,3.635.7,6.774,1.3,10.489-2.369a1.841,1.841,0,1,1,2.587,2.621c-5.093,5.027-9.9,4.105-13.769,3.365-3.2-.614-5.108-.872-6.958.954l-4.584,4.523a6.817,6.817,0,0,1-4.8,1.962Z" transform="translate(5028.374 3828.004)" fill="#7aafc4"/>
    <path id="Path_501" data-name="Path 501" d="M264.391,377.931a6.816,6.816,0,0,1-4.8-1.961,6.711,6.711,0,0,1,0-9.553l6-5.921a6.867,6.867,0,0,1,9.61,0,6.713,6.713,0,0,1,0,9.553l-6,5.921A6.821,6.821,0,0,1,264.391,377.931Zm6-15.719a3.149,3.149,0,0,0-2.218.905l-6,5.921a3.029,3.029,0,0,0,0,4.311,3.171,3.171,0,0,0,4.437,0l6-5.921a3.031,3.031,0,0,0,0-4.312A3.15,3.15,0,0,0,270.389,362.213Zm-3.511-.4h0Z" transform="translate(5047.566 3615.582)" fill="#7aafc4"/>
  </g>
</svg>
