<svg xmlns="http://www.w3.org/2000/svg" xmlns:xlink="http://www.w3.org/1999/xlink" width="40" height="40" viewBox="0 0 40 40">
  <defs>
    <linearGradient id="linear-gradient" x1="0.5" x2="0.5" y2="1" gradientUnits="objectBoundingBox">
      <stop offset="0" stop-color="#0b83b2"/>
      <stop offset="1" stop-color="#5aa2c6"/>
    </linearGradient>
  </defs>
  <g id="Group_162746" data-name="Group 162746" transform="translate(-24 -27)">
    <circle id="Ellipse_48" data-name="Ellipse 48" cx="20" cy="20" r="20" transform="translate(24 27)" fill="url(#linear-gradient)"/>
    <g id="Group_162650" data-name="Group 162650" transform="translate(-5243.287 -3881.291)">
      <path id="Path_490" data-name="Path 490" d="M438.805,367.787a1.771,1.771,0,0,1-1.248-.509.46.46,0,1,1,.646-.654.861.861,0,0,0,1.2,0,.819.819,0,0,0,0-1.171.46.46,0,1,1,.646-.654,1.739,1.739,0,0,1,0,2.479,1.772,1.772,0,0,1-1.248.509Z" transform="translate(4853.999 3567.631)" fill="#fff" stroke="#fff" stroke-width="0.3"/>
      <path id="Path_491" data-name="Path 491" d="M422.192,252.742a1.772,1.772,0,0,1-1.248-.509l-3.473-3.428a.46.46,0,0,1,.646-.654l3.473,3.428a.86.86,0,0,0,1.2,0,.819.819,0,0,0,0-1.171l-4.55-4.491a.46.46,0,1,1,.646-.654l4.55,4.491a1.738,1.738,0,0,1,0,2.48,1.77,1.77,0,0,1-1.248.509Z" transform="translate(4873.135 3681.517)" fill="#fff" stroke="#fff" stroke-width="0.3"/>
      <path id="Path_492" data-name="Path 492" d="M392.7,364.67a1.77,1.77,0,0,1-1.247-.509.46.46,0,0,1,.646-.654.86.86,0,0,0,1.2,0,.82.82,0,0,0,0-1.171l-1.751-1.728a.46.46,0,0,1,.646-.654l1.751,1.728a1.739,1.739,0,0,1,0,2.479A1.771,1.771,0,0,1,392.7,364.67Z" transform="translate(4897.926 3572.247)" fill="#fff" stroke="#fff" stroke-width="0.3"/>
      <path id="Path_493" data-name="Path 493" d="M152.133,222.254a.458.458,0,0,1-.343-.154,5.207,5.207,0,0,1-1.181-2.186c-.108-.437-.176-.786-.231-1.067a2.259,2.259,0,0,0-.76-1.571.46.46,0,0,1,.646-.654,3.132,3.132,0,0,1,1.017,2.05c.055.285.118.607.221,1.021a4.289,4.289,0,0,0,.976,1.8.459.459,0,0,1-.343.765Z" transform="translate(5128.328 3708.803)" fill="#fff" stroke="#fff" stroke-width="0.3"/>
      <path id="Path_494" data-name="Path 494" d="M254.641,120.377a.456.456,0,0,1-.254-.077,7.443,7.443,0,0,0-2.432-.833l-.109-.026a3.572,3.572,0,0,1-2.029-1.048.46.46,0,0,1,.646-.654,2.672,2.672,0,0,0,1.6.808l.11.026a8.1,8.1,0,0,1,2.726.961.46.46,0,0,1-.255.842Z" transform="translate(5032.864 3803.012)" fill="#fff" stroke="#fff" stroke-width="0.3"/>
      <path id="Path_495" data-name="Path 495" d="M518.316,216.863a.459.459,0,0,1-.323-.787,1.73,1.73,0,0,0,.519-1.3c.129-1.4.194-2.1.966-2.859l1.426-1.408a.459.459,0,1,1,.646.654l-1.426,1.408c-.512.506-.567.892-.7,2.29a2.622,2.622,0,0,1-.788,1.873.46.46,0,0,1-.323.132Z" transform="translate(4777.365 3714.629)" fill="#fff" stroke="#fff" stroke-width="0.3"/>
      <path id="Path_496" data-name="Path 496" d="M102.968,71.312a.457.457,0,0,1-.323-.133L101.252,69.8a.46.46,0,1,1,.646-.654l1.07,1.057,5.8-5.738-1.482-1.463a.46.46,0,0,1,.646-.654l1.813,1.79a.459.459,0,0,1,0,.654l-6.456,6.384a.459.459,0,0,1-.323.133Z" transform="translate(5174.407 3855.781)" fill="#fff" stroke="#fff" stroke-width="0.3"/>
      <path id="Path_497" data-name="Path 497" d="M185.124,304.456a1.7,1.7,0,0,1-1.2-.49,1.675,1.675,0,0,1,0-2.384l.779-.769a1.714,1.714,0,0,1,2.4,0,1.675,1.675,0,0,1,0,2.384l-.779.769A1.7,1.7,0,0,1,185.124,304.456Zm.225-2.989-.779.769a.756.756,0,0,0,0,1.076.791.791,0,0,0,1.107,0l.779-.769a.756.756,0,0,0,0-1.076A.792.792,0,0,0,185.349,301.467Z" transform="translate(5095.987 3628.932)" fill="#fff" stroke="#fff" stroke-width="0.3"/>
      <path id="Path_498" data-name="Path 498" d="M296.424,414.305a1.7,1.7,0,0,1-1.2-.49,1.675,1.675,0,0,1,0-2.385l.779-.769a1.714,1.714,0,0,1,2.4,0,1.676,1.676,0,0,1,0,2.384l-.779.769a1.7,1.7,0,0,1-1.2.49Zm.225-2.989-.779.769a.756.756,0,0,0,0,1.076.791.791,0,0,0,1.107,0l.779-.769a.757.757,0,0,0,0-1.076A.791.791,0,0,0,296.649,411.316Z" transform="translate(4989.948 3524.276)" fill="#fff" stroke="#fff" stroke-width="0.3"/>
      <path id="Path_499" data-name="Path 499" d="M222.208,326.764a1.7,1.7,0,0,1-1.2-.49,1.675,1.675,0,0,1,0-2.384l1.5-1.478a1.714,1.714,0,0,1,2.4,0,1.675,1.675,0,0,1,0,2.384l-1.5,1.478A1.7,1.7,0,0,1,222.208,326.764Zm1.5-3.923a.785.785,0,0,0-.554.226l-1.5,1.478a.757.757,0,0,0,0,1.076.792.792,0,0,0,1.108,0l1.5-1.478a.756.756,0,0,0,0-1.076A.785.785,0,0,0,223.705,322.841Zm-.877-.1h0Z" transform="translate(5060.656 3608.353)" fill="#fff" stroke="#fff" stroke-width="0.3"/>
      <path id="Path_500" data-name="Path 500" d="M282.964,104.9a1.7,1.7,0,0,1-1.2-.489,1.675,1.675,0,0,1,0-2.385l3.175-3.065a3.336,3.336,0,0,1,2.069-.952c1.42-.128,1.813-.182,2.327-.69l.708-.7a.46.46,0,0,1,.646.654l-.708.7c-.77.76-1.479.824-2.89.951a2.432,2.432,0,0,0-1.509.694l-3.175,3.065a.756.756,0,0,0,0,1.072.791.791,0,0,0,1.107,0l1.144-1.129a2.541,2.541,0,0,1,2.556-.487,2.458,2.458,0,0,0,2.618-.591.46.46,0,1,1,.646.654,3.347,3.347,0,0,1-3.437.84c-.8-.153-1.275-.218-1.737.238l-1.144,1.129a1.7,1.7,0,0,1-1.2.49Z" transform="translate(5002.771 3823.134)" fill="#fff" stroke="#fff" stroke-width="0.3"/>
      <path id="Path_501" data-name="Path 501" d="M259.288,363.377a1.7,1.7,0,0,1-1.2-.489,1.675,1.675,0,0,1,0-2.384l1.5-1.478a1.714,1.714,0,0,1,2.4,0,1.676,1.676,0,0,1,0,2.384l-1.5,1.478A1.7,1.7,0,0,1,259.288,363.377Zm1.5-3.923a.786.786,0,0,0-.554.226l-1.5,1.478a.756.756,0,0,0,0,1.076.791.791,0,0,0,1.107,0l1.5-1.478a.757.757,0,0,0,0-1.076A.786.786,0,0,0,260.785,359.454Zm-.876-.1h0Z" transform="translate(5025.329 3573.471)" fill="#fff" stroke="#fff" stroke-width="0.3"/>
    </g>
  </g>
</svg>
