<svg xmlns="http://www.w3.org/2000/svg" width="78.247" height="80.956" viewBox="0 0 78.247 80.956">
  <g id="Group_162611" data-name="Group 162611" transform="translate(-6211.47 -4241)">
    <path id="Path_476" data-name="Path 476" d="M233.224,132.71c-14.024,0-25.514,10.564-25.514,23.685,0,7.152,2.874,12.474,6.068,16.85,2.97,4.068,6.162,7.41,7.83,10.715a1.259,1.259,0,0,0,.053.494c.6,2.015,1.1,5.027,2.652,7.65a9.654,9.654,0,0,0,2.241,2.608,6.911,6.911,0,0,0,13.332.006,9.657,9.657,0,0,0,2.249-2.615c1.55-2.624,2.054-5.635,2.652-7.65a1.272,1.272,0,0,0,.046-.482c1.666-3.308,4.862-6.654,7.835-10.727,3.194-4.375,6.07-9.7,6.07-16.85,0-13.121-11.49-23.684-25.512-23.684Zm-1.055,2.575v6.633a2.56,2.56,0,0,0,1.769,2.454,2.588,2.588,0,0,0,2.7-.824,2.322,2.322,0,0,1,2.528-.8c.805.275,1.509.99,1.509,2.693s-.7,2.418-1.509,2.693a2.328,2.328,0,0,1-2.528-.807,2.589,2.589,0,0,0-2.7-.824,2.56,2.56,0,0,0-1.769,2.454v7.28h-6.853c-.708,0-.595-.493-.279-.741a4.364,4.364,0,0,0,1.449-4.826,5.2,5.2,0,0,0-9.372,0,4.5,4.5,0,0,0,1.449,4.826c.4.348.038.741-.288.741h-8.033c.089-11.245,9.724-20.444,21.926-20.951Zm2.107,0c12.2.508,21.83,9.706,21.917,20.953H249a2.515,2.515,0,0,0-1.63,4.472,2.333,2.333,0,0,1,.807,2.53c-.275.805-.99,1.506-2.693,1.506s-2.418-.7-2.693-1.506a2.328,2.328,0,0,1,.8-2.53,2.515,2.515,0,0,0-1.63-4.472h-7.685v-7.28c0-.414.083-.382.24-.427a.532.532,0,0,1,.5.148,4.457,4.457,0,0,0,4.836,1.449,5.216,5.216,0,0,0,0-9.38,4.459,4.459,0,0,0-4.836,1.449.539.539,0,0,1-.5.148c-.156-.043-.24-.013-.24-.427ZM221.8,149.838c1.7,0,2.418.7,2.693,1.509a2.328,2.328,0,0,1-.807,2.528,2.589,2.589,0,0,0-.824,2.7,2.562,2.562,0,0,0,2.454,1.772h6.853v7.971c0,.522-.456.611-.741.281a4.506,4.506,0,0,0-4.835-1.449,5.21,5.21,0,0,0,0,9.372,4.52,4.52,0,0,0,4.835-1.449c.389-.448.741-.143.741.288v8.411a20.767,20.767,0,0,1-12.51-5.139c-1.272-1.585-2.6-3.18-3.839-4.885-2.734-3.745-5.047-7.907-5.5-13.4h7.953a2.512,2.512,0,0,0,1.63-4.474,2.322,2.322,0,0,1-.8-2.528c.276-.806.99-1.509,2.693-1.509Zm12.477,8.509h7.685c.414,0,.382.081.427.237a.536.536,0,0,1-.148.5,4.448,4.448,0,0,0-1.44,4.833,5.21,5.21,0,0,0,9.372,0,4.454,4.454,0,0,0-1.449-4.833.543.543,0,0,1-.148-.5c.045-.156.013-.237.427-.237h7.11c-.45,5.492-2.753,9.653-5.487,13.4-1.245,1.7-2.567,3.3-3.839,4.885a20.758,20.758,0,0,1-12.51,5.139v-8.411a2.56,2.56,0,0,0-1.769-2.454,2.588,2.588,0,0,0-2.7.821,2.322,2.322,0,0,1-2.528.8c-.805-.275-1.509-.99-1.509-2.693s.7-2.418,1.509-2.693a2.329,2.329,0,0,1,2.528.809,2.588,2.588,0,0,0,2.7.824,2.563,2.563,0,0,0,1.769-2.455Zm-10.727,23.822a22.722,22.722,0,0,0,19.347,0c-.251.461-.478.93-.688,1.406-1.542,2.664-3.933,5.013-8.984,5.013s-7.444-2.353-8.987-5.016c-.209-.476-.437-.943-.688-1.4Zm2.012,6.588a13.631,13.631,0,0,0,15.324,0,12.542,12.542,0,0,1-.935,2.062c-1.225,2.075-2.932,3.543-6.727,3.543s-5.5-1.468-6.729-3.543a12.575,12.575,0,0,1-.934-2.062Z" transform="translate(6017.37 4122.152)" fill="#7aafc4" fill-rule="evenodd"/>
    <path id="Path_477" data-name="Path 477" d="M199.5,387.581a1.28,1.28,0,0,0-1.814-.015l-4.962,4.879a1.283,1.283,0,0,0,1.8,1.829l4.962-4.879A1.28,1.28,0,0,0,199.5,387.581Z" transform="translate(6029.982 3913.295)" fill="#7aafc4" fill-rule="evenodd"/>
    <path id="Path_478" data-name="Path 478" d="M156.308,332.251a1.281,1.281,0,0,0-1.673-.7l-6.444,2.626a1.283,1.283,0,0,0,.969,2.376l6.444-2.626A1.28,1.28,0,0,0,156.308,332.251Z" transform="translate(6066.874 3959.045)" fill="#7aafc4" fill-rule="evenodd"/>
    <path id="Path_479" data-name="Path 479" d="M131.8,267.737a1.28,1.28,0,0,1,1.283-1.283h6.958a1.283,1.283,0,1,1,0,2.566h-6.958A1.281,1.281,0,0,1,131.8,267.737Z" transform="translate(6079.67 4012.388)" fill="#7aafc4" fill-rule="evenodd"/>
    <path id="Path_480" data-name="Path 480" d="M199.5,125.546a1.28,1.28,0,0,1-1.814.015l-4.962-4.879a1.283,1.283,0,1,1,1.8-1.829l4.962,4.879A1.28,1.28,0,0,1,199.5,125.546Z" transform="translate(6029.982 4133.827)" fill="#7aafc4" fill-rule="evenodd"/>
    <path id="Path_481" data-name="Path 481" d="M156.308,191.185a1.281,1.281,0,0,1-1.673.7l-6.444-2.626a1.283,1.283,0,0,1,.969-2.376l6.444,2.626A1.28,1.28,0,0,1,156.308,191.185Z" transform="translate(6066.874 4077.768)" fill="#7aafc4" fill-rule="evenodd"/>
    <path id="Path_482" data-name="Path 482" d="M265.778,80.672a1.28,1.28,0,0,1-1.679-.687l-2.689-6.418a1.283,1.283,0,0,1,2.366-.992l2.689,6.418A1.279,1.279,0,0,1,265.778,80.672Z" transform="translate(5973.381 4172.151)" fill="#7aafc4" fill-rule="evenodd"/>
    <path id="Path_483" data-name="Path 483" d="M344.127,64.923a1.28,1.28,0,0,1-1.283-1.283V56.682a1.283,1.283,0,1,1,2.566,0V63.64A1.281,1.281,0,0,1,344.127,64.923Z" transform="translate(5906.466 4185.602)" fill="#7aafc4" fill-rule="evenodd"/>
    <path id="Path_484" data-name="Path 484" d="M466.029,387.581a1.28,1.28,0,0,1,1.814-.015l4.962,4.879a1.283,1.283,0,0,1-1.8,1.829l-4.962-4.879A1.279,1.279,0,0,1,466.029,387.581Z" transform="translate(5805.671 3913.295)" fill="#7aafc4" fill-rule="evenodd"/>
    <path id="Path_485" data-name="Path 485" d="M502.441,332.251a1.281,1.281,0,0,1,1.672-.7l6.444,2.626a1.283,1.283,0,1,1-.969,2.376l-6.444-2.628a1.278,1.278,0,0,1-.7-1.671Z" transform="translate(5775.563 3959.045)" fill="#7aafc4" fill-rule="evenodd"/>
    <path id="Path_486" data-name="Path 486" d="M524.613,267.737a1.28,1.28,0,0,0-1.283-1.283h-6.958a1.283,1.283,0,0,0,0,2.566h6.958A1.281,1.281,0,0,0,524.613,267.737Z" transform="translate(5765.104 4012.388)" fill="#7aafc4" fill-rule="evenodd"/>
    <path id="Path_487" data-name="Path 487" d="M466.029,125.546a1.28,1.28,0,0,0,1.814.015l4.962-4.879a1.283,1.283,0,0,0-1.8-1.829l-4.962,4.879A1.279,1.279,0,0,0,466.029,125.546Z" transform="translate(5805.671 4133.827)" fill="#7aafc4" fill-rule="evenodd"/>
    <path id="Path_488" data-name="Path 488" d="M502.441,191.185a1.281,1.281,0,0,0,1.672.7l6.444-2.626a1.283,1.283,0,1,0-.969-2.376l-6.444,2.626a1.28,1.28,0,0,0-.7,1.673Z" transform="translate(5775.563 4077.768)" fill="#7aafc4" fill-rule="evenodd"/>
    <path id="Path_489" data-name="Path 489" d="M410.171,80.672a1.281,1.281,0,0,0,1.679-.687l2.689-6.418a1.283,1.283,0,0,0-2.366-.992l-2.689,6.418A1.278,1.278,0,0,0,410.171,80.672Z" transform="translate(5851.857 4172.151)" fill="#7aafc4" fill-rule="evenodd"/>
  </g>
</svg>
