<svg xmlns="http://www.w3.org/2000/svg" xmlns:xlink="http://www.w3.org/1999/xlink" width="40" height="40" viewBox="0 0 40 40">
  <defs>
    <linearGradient id="linear-gradient" x1="0.5" x2="0.5" y2="1" gradientUnits="objectBoundingBox">
      <stop offset="0" stop-color="#0b83b2"/>
      <stop offset="1" stop-color="#5aa2c6"/>
    </linearGradient>
  </defs>
  <g id="Group_162745" data-name="Group 162745" transform="translate(-24 -27)">
    <circle id="Ellipse_48" data-name="Ellipse 48" cx="20" cy="20" r="20" transform="translate(24 27)" fill="url(#linear-gradient)"/>
    <g id="Group_162611" data-name="Group 162611" transform="translate(-6179.286 -4206.226)">
      <path id="Path_476" data-name="Path 476" d="M215.416,132.71a7.45,7.45,0,0,0-7.706,7.154,8.375,8.375,0,0,0,1.833,5.089,29.371,29.371,0,0,1,2.365,3.236.38.38,0,0,0,.016.149,9.406,9.406,0,0,0,.8,2.31,2.916,2.916,0,0,0,.677.788,2.087,2.087,0,0,0,4.027,0,2.916,2.916,0,0,0,.679-.79,9.4,9.4,0,0,0,.8-2.31.384.384,0,0,0,.014-.146,29.248,29.248,0,0,1,2.366-3.24,8.375,8.375,0,0,0,1.833-5.089,7.449,7.449,0,0,0-7.705-7.153Zm-.319.778v2a.773.773,0,0,0,.534.741.782.782,0,0,0,.816-.249.7.7,0,0,1,.763-.242c.243.083.456.3.456.813s-.212.73-.456.813a.7.7,0,0,1-.763-.244.782.782,0,0,0-.816-.249.773.773,0,0,0-.534.741v2.2h-2.07c-.214,0-.18-.149-.084-.224a1.318,1.318,0,0,0,.438-1.458,1.572,1.572,0,0,0-2.831,0,1.359,1.359,0,0,0,.438,1.458c.121.105.011.224-.087.224h-2.426a6.649,6.649,0,0,1,6.622-6.328Zm.636,0a6.646,6.646,0,0,1,6.62,6.328h-2.172a.76.76,0,0,0-.492,1.351.7.7,0,0,1,.244.764c-.083.243-.3.455-.813.455s-.73-.212-.813-.455a.7.7,0,0,1,.242-.764.76.76,0,0,0-.492-1.351h-2.321v-2.2c0-.125.025-.116.072-.129a.161.161,0,0,1,.151.045,1.346,1.346,0,0,0,1.46.438,1.576,1.576,0,0,0,0-2.833,1.347,1.347,0,0,0-1.46.438.163.163,0,0,1-.151.045c-.047-.013-.072,0-.072-.129Zm-3.768,4.4c.514,0,.73.212.813.456a.7.7,0,0,1-.244.763.782.782,0,0,0-.249.816.774.774,0,0,0,.741.535h2.07v2.407c0,.158-.138.185-.224.085a1.361,1.361,0,0,0-1.46-.438,1.573,1.573,0,0,0,0,2.831,1.365,1.365,0,0,0,1.46-.438c.118-.135.224-.043.224.087v2.54a6.272,6.272,0,0,1-3.778-1.552c-.384-.479-.784-.961-1.159-1.475a7.756,7.756,0,0,1-1.661-4.047h2.4a.759.759,0,0,0,.492-1.351.7.7,0,0,1-.242-.763c.083-.243.3-.456.813-.456Zm3.768,2.57h2.321c.125,0,.115.025.129.072a.162.162,0,0,1-.045.152,1.344,1.344,0,0,0-.435,1.46,1.573,1.573,0,0,0,2.831,0,1.345,1.345,0,0,0-.438-1.46.164.164,0,0,1-.045-.152c.014-.047,0-.072.129-.072h2.147a7.75,7.75,0,0,1-1.657,4.047c-.376.515-.775,1-1.159,1.475a6.27,6.27,0,0,1-3.778,1.552v-2.54a.773.773,0,0,0-.534-.741.782.782,0,0,0-.816.248.7.7,0,0,1-.763.242c-.243-.083-.456-.3-.456-.813s.212-.73.456-.813a.7.7,0,0,1,.763.244.759.759,0,0,0,1.35-.493Zm-3.24,7.195a6.862,6.862,0,0,0,5.843,0c-.076.139-.144.281-.208.425a3.189,3.189,0,0,1-5.428,0c-.063-.144-.132-.285-.208-.424Zm.608,1.99a4.117,4.117,0,0,0,4.628,0,3.787,3.787,0,0,1-.282.623,2.464,2.464,0,0,1-4.064,0,3.8,3.8,0,0,1-.282-.623Z" transform="translate(6007.87 4112.477)" fill="#fff" stroke="#fff" stroke-width="0.3" fill-rule="evenodd"/>
      <path id="Path_477" data-name="Path 477" d="M194.506,387.312a.387.387,0,0,0-.548,0l-1.5,1.474a.387.387,0,0,0,.543.553l1.5-1.474A.387.387,0,0,0,194.506,387.312Z" transform="translate(6022.405 3871.772)" fill="#fff" stroke="#fff" stroke-width="0.3" fill-rule="evenodd"/>
      <path id="Path_478" data-name="Path 478" d="M150.085,331.693a.387.387,0,0,0-.505-.213l-1.946.793a.388.388,0,0,0,.293.718l1.946-.793A.387.387,0,0,0,150.085,331.693Z" transform="translate(6064.922 3924.498)" fill="#fff" stroke="#fff" stroke-width="0.3" fill-rule="evenodd"/>
      <path id="Path_479" data-name="Path 479" d="M131.8,266.841a.387.387,0,0,1,.388-.388h2.1a.388.388,0,1,1,0,.775h-2.1A.387.387,0,0,1,131.8,266.841Z" transform="translate(6079.67 3985.976)" fill="#fff" stroke="#fff" stroke-width="0.3" fill-rule="evenodd"/>
      <path id="Path_480" data-name="Path 480" d="M194.506,120.617a.387.387,0,0,1-.548,0l-1.5-1.474A.387.387,0,1,1,193,118.6l1.5,1.474A.387.387,0,0,1,194.506,120.617Z" transform="translate(6022.405 4125.932)" fill="#fff" stroke="#fff" stroke-width="0.3" fill-rule="evenodd"/>
      <path id="Path_481" data-name="Path 481" d="M150.085,188.118a.387.387,0,0,1-.505.213l-1.946-.793a.388.388,0,0,1,.293-.718l1.946.793A.387.387,0,0,1,150.085,188.118Z" transform="translate(6064.922 4061.324)" fill="#fff" stroke="#fff" stroke-width="0.3" fill-rule="evenodd"/>
      <path id="Path_482" data-name="Path 482" d="M262.659,74.47a.387.387,0,0,1-.507-.208l-.812-1.938a.387.387,0,1,1,.715-.3l.812,1.939A.386.386,0,0,1,262.659,74.47Z" transform="translate(5957.173 4170.101)" fill="#fff" stroke="#fff" stroke-width="0.3" fill-rule="evenodd"/>
      <path id="Path_483" data-name="Path 483" d="M343.231,58.275a.387.387,0,0,1-.388-.388v-2.1a.388.388,0,1,1,.775,0v2.1A.387.387,0,0,1,343.231,58.275Z" transform="translate(5880.055 4185.602)" fill="#fff" stroke="#fff" stroke-width="0.3" fill-rule="evenodd"/>
      <path id="Path_484" data-name="Path 484" d="M465.771,387.312a.387.387,0,0,1,.548,0l1.5,1.474a.387.387,0,0,1-.543.553l-1.5-1.474A.386.386,0,0,1,465.771,387.312Z" transform="translate(5763.89 3871.772)" fill="#fff" stroke="#fff" stroke-width="0.3" fill-rule="evenodd"/>
      <path id="Path_485" data-name="Path 485" d="M502.374,331.693a.387.387,0,0,1,.505-.213l1.946.793a.388.388,0,0,1-.293.718l-1.946-.794A.386.386,0,0,1,502.374,331.693Z" transform="translate(5729.19 3924.498)" fill="#fff" stroke="#fff" stroke-width="0.3" fill-rule="evenodd"/>
      <path id="Path_486" data-name="Path 486" d="M517.965,266.841a.387.387,0,0,0-.388-.388h-2.1a.388.388,0,1,0,0,.775h2.1A.387.387,0,0,0,517.965,266.841Z" transform="translate(5717.137 3985.976)" fill="#fff" stroke="#fff" stroke-width="0.3" fill-rule="evenodd"/>
      <path id="Path_487" data-name="Path 487" d="M465.771,120.617a.387.387,0,0,0,.548,0l1.5-1.474a.387.387,0,0,0-.543-.553l-1.5,1.474A.386.386,0,0,0,465.771,120.617Z" transform="translate(5763.89 4125.932)" fill="#fff" stroke="#fff" stroke-width="0.3" fill-rule="evenodd"/>
      <path id="Path_488" data-name="Path 488" d="M502.374,188.118a.387.387,0,0,0,.505.213l1.946-.793a.388.388,0,1,0-.293-.718l-1.946.793A.387.387,0,0,0,502.374,188.118Z" transform="translate(5729.19 4061.324)" fill="#fff" stroke="#fff" stroke-width="0.3" fill-rule="evenodd"/>
      <path id="Path_489" data-name="Path 489" d="M409.621,74.47a.387.387,0,0,0,.507-.208l.812-1.938a.387.387,0,1,0-.715-.3l-.812,1.939A.386.386,0,0,0,409.621,74.47Z" transform="translate(5817.119 4170.101)" fill="#fff" stroke="#fff" stroke-width="0.3" fill-rule="evenodd"/>
    </g>
  </g>
</svg>
