<svg xmlns="http://www.w3.org/2000/svg" width="76.043" height="75.761" viewBox="0 0 76.043 75.761">
  <path id="Path_438" data-name="Path 438" d="M182.191,79.529a24.438,24.438,0,0,1,1.825,2.048c.072-.534.136-1.084.183-1.594.1-1.108.144-2.24.144-3.356h0a37.849,37.849,0,1,0-26.46,36.16A18.754,18.754,0,1,0,154.1,110.4a34.417,34.417,0,0,1-6.025.8v-3.985h-3.284v3.985a34.5,34.5,0,0,1-21.647-8.99l2.789-2.789-2.32-2.32-2.789,2.789h0a34.5,34.5,0,0,1-8.99-21.647h9.094V74.953h-9.094a34.5,34.5,0,0,1,8.99-21.647l2.789,2.789,2.32-2.32-2.789-2.789h0A34.5,34.5,0,0,1,144.788,42V51.09h3.283V42a34.5,34.5,0,0,1,21.647,8.99l-2.789,2.789,2.32,2.32,2.789-2.789h0a34.495,34.495,0,0,1,9.03,23.289c0,.614,0,1.227-.056,1.833.407.35.8.717,1.18,1.1Zm-16.41,1.132a15.31,15.31,0,0,1,13.247,7.667,15.141,15.141,0,0,1,1.674,4.439,15.517,15.517,0,0,1,.335,3.188,15.279,15.279,0,0,1-18.427,14.913,15.106,15.106,0,0,1-4.447-1.706,15.287,15.287,0,0,1,7.619-28.533Zm-21.01-20.722h3.252V76.6a1.668,1.668,0,0,1-.478,1.164L130.808,94.545l-2.32-2.32,16.283-16.307Zm19.368,37.652h-7.97V94.307h7.97v-7.97h3.283v7.97h7.97V97.59h-7.97v7.97h-3.283Z" transform="translate(-108.643 -38.842)" fill="#7aafc4"/>
</svg>
