<svg xmlns="http://www.w3.org/2000/svg" xmlns:xlink="http://www.w3.org/1999/xlink" width="40" height="40" viewBox="0 0 40 40">
  <defs>
    <linearGradient id="linear-gradient" x1="0.5" x2="0.5" y2="1" gradientUnits="objectBoundingBox">
      <stop offset="0" stop-color="#0b83b2"/>
      <stop offset="1" stop-color="#5aa2c6"/>
    </linearGradient>
  </defs>
  <g id="Group_162744" data-name="Group 162744" transform="translate(-24 -27)">
    <circle id="Ellipse_48" data-name="Ellipse 48" cx="20" cy="20" r="20" transform="translate(24 27)" fill="url(#linear-gradient)"/>
    <path id="Path_438" data-name="Path 438" d="M131.685,51.589a7.654,7.654,0,0,1,.572.642c.022-.167.043-.34.057-.5.03-.347.045-.7.045-1.051h0a11.858,11.858,0,1,0-8.29,11.329,5.876,5.876,0,1,0-1.186-.749,10.783,10.783,0,0,1-1.888.25V60.26h-1.029v1.248a10.809,10.809,0,0,1-6.782-2.817l.874-.874-.727-.727-.874.874h0a10.809,10.809,0,0,1-2.817-6.782h2.849V50.155h-2.849a10.809,10.809,0,0,1,2.817-6.782l.874.874.727-.727-.874-.874h0a10.809,10.809,0,0,1,6.782-2.817v2.849H121V39.83a10.809,10.809,0,0,1,6.782,2.817l-.874.874.727.727.874-.874h0a10.807,10.807,0,0,1,2.829,7.3c0,.192,0,.385-.017.574.127.11.252.225.37.344Zm-5.141.355a4.8,4.8,0,0,1,4.15,2.4,4.743,4.743,0,0,1,.524,1.391,4.862,4.862,0,0,1,.1,1,4.787,4.787,0,0,1-5.773,4.672,4.733,4.733,0,0,1-1.393-.534,4.789,4.789,0,0,1,2.387-8.939Zm-6.582-6.492h1.019V50.67a.523.523,0,0,1-.15.365l-5.244,5.258-.727-.727,5.1-5.109Zm6.068,11.8h-2.5V56.218h2.5v-2.5h1.029v2.5h2.5v1.029h-2.5v2.5h-1.029Z" transform="translate(-76.555 -3.709)" fill="#fff" stroke="#fff" stroke-width="0.3"/>
  </g>
</svg>
