<svg xmlns="http://www.w3.org/2000/svg" xmlns:xlink="http://www.w3.org/1999/xlink" width="40" height="40" viewBox="0 0 40 40">
  <defs>
    <linearGradient id="linear-gradient" x1="0.5" x2="0.5" y2="1" gradientUnits="objectBoundingBox">
      <stop offset="0" stop-color="#0b83b2"/>
      <stop offset="1" stop-color="#5aa2c6"/>
    </linearGradient>
  </defs>
  <g id="Group_162742" data-name="Group 162742" transform="translate(-24 -27)">
    <circle id="Ellipse_48" data-name="Ellipse 48" cx="20" cy="20" r="20" transform="translate(24 27)" fill="url(#linear-gradient)"/>
    <path id="Path_402" data-name="Path 402" d="M138.989,106.479a.342.342,0,0,0-.18.085,3.762,3.762,0,0,0-.985,1.726,3.753,3.753,0,0,0-1.737,1.006.351.351,0,0,0,0,.455,3.751,3.751,0,0,0,1.737,1.006,3.764,3.764,0,0,0,.985,1.726.352.352,0,0,0,.466,0,3.762,3.762,0,0,0,.985-1.726A3.754,3.754,0,0,0,142,109.751a.351.351,0,0,0,0-.455,3.751,3.751,0,0,0-1.737-1.006,3.764,3.764,0,0,0-.985-1.726.344.344,0,0,0-.286-.085Zm11.524,0a.342.342,0,0,0-.18.085,3.762,3.762,0,0,0-.985,1.726,3.752,3.752,0,0,0-1.737,1.006.351.351,0,0,0,0,.455,3.751,3.751,0,0,0,1.737,1.006,3.764,3.764,0,0,0,.985,1.726.352.352,0,0,0,.466,0,3.762,3.762,0,0,0,.985-1.726,3.754,3.754,0,0,0,1.737-1.006.351.351,0,0,0,0-.455,3.751,3.751,0,0,0-1.737-1.006,3.764,3.764,0,0,0-.985-1.726.344.344,0,0,0-.286-.085Zm-11.472.889a3.219,3.219,0,0,1,.636,1.271.347.347,0,0,0,.254.254,3.212,3.212,0,0,1,1.282.635,3.229,3.229,0,0,1-1.282.635.346.346,0,0,0-.254.244,3.219,3.219,0,0,1-.636,1.271,3.219,3.219,0,0,1-.636-1.271.346.346,0,0,0-.254-.244,3.231,3.231,0,0,1-1.282-.635,3.21,3.21,0,0,1,1.282-.635.346.346,0,0,0,.254-.254A3.219,3.219,0,0,1,139.042,107.368Zm11.524,0a3.219,3.219,0,0,1,.636,1.271.347.347,0,0,0,.254.254,3.212,3.212,0,0,1,1.282.635,3.229,3.229,0,0,1-1.282.635.346.346,0,0,0-.254.244,3.219,3.219,0,0,1-.636,1.271,3.22,3.22,0,0,1-.636-1.271.346.346,0,0,0-.254-.244,3.231,3.231,0,0,1-1.282-.635,3.21,3.21,0,0,1,1.282-.635.346.346,0,0,0,.254-.254A3.22,3.22,0,0,1,150.566,107.368Zm-5.815,3.854a.342.342,0,0,0-.18.085,4.633,4.633,0,0,0-1.229,2.171,4.643,4.643,0,0,0-2.172,1.239.351.351,0,0,0,0,.455,4.647,4.647,0,0,0,2.172,1.239,4.631,4.631,0,0,0,1.229,2.171.352.352,0,0,0,.466,0,4.633,4.633,0,0,0,1.229-2.171,4.645,4.645,0,0,0,2.172-1.239.351.351,0,0,0,0-.455,4.645,4.645,0,0,0-2.172-1.239,4.631,4.631,0,0,0-1.229-2.171.344.344,0,0,0-.286-.085Zm-11.048.7a1.425,1.425,0,0,0-1.441,1.281q-.333,3.735-.678,7.475,0,.016,0,.032a3.409,3.409,0,0,0,1.1,2.255.22.22,0,0,0,.021.021c1.494,1.431,3.442,2.763,4.629,4.267l-.328,3.24a.341.341,0,1,0,.678.074l.339-3.388a.342.342,0,0,0-.074-.244c-1.277-1.675-3.3-3.034-4.756-4.426l-.021-.021a2.837,2.837,0,0,1-.911-1.758V120.7l.678-7.391c.229-1.441,1.744-.445,1.695-.106q-.165,3.231-.339,6.469a.344.344,0,0,0,.117.275l3.051,2.711a.339.339,0,1,0,.445-.508l-2.593-2.308c0-.114-.007-.227,0-.477a1.557,1.557,0,0,1,.636-1.239.938.938,0,0,1,1.186.138v-.01c1.763,1.459,2.849,2.208,3.58,2.721a5.126,5.126,0,0,1,1.441,1.281,3.962,3.962,0,0,1,.3.6.339.339,0,1,0,.636-.233,3.021,3.021,0,0,0-.381-.762,5.856,5.856,0,0,0-1.6-1.44c-.736-.517-1.8-1.245-3.549-2.69a1.681,1.681,0,0,0-1.97-.18,1.914,1.914,0,0,0-.53.582c.083-1.623.174-3.251.254-4.871.082-.719-.588-1.24-1.324-1.334a1.922,1.922,0,0,0-.286-.011Zm22.2,0a1.9,1.9,0,0,0-.286.011c-.736.094-1.406.615-1.324,1.334q.123,2.435.254,4.871a1.911,1.911,0,0,0-.53-.582,1.681,1.681,0,0,0-1.97.18c-1.746,1.445-2.813,2.173-3.549,2.69a5.856,5.856,0,0,0-1.6,1.44,6.359,6.359,0,0,0-.741,3.579v5.093a.339.339,0,1,0,.678,0v-5.083a6.578,6.578,0,0,1,.614-3.187v-.01a5.129,5.129,0,0,1,1.441-1.281c.731-.513,1.817-1.262,3.58-2.721v.01a.937.937,0,0,1,1.186-.138,1.557,1.557,0,0,1,.636,1.239c0,.182,0,.284,0,.474l-2.6,2.311a.339.339,0,1,0,.445.508l3.051-2.711a.345.345,0,0,0,.117-.275c-.112-2.156-.231-4.316-.339-6.469-.05-.339,1.466-1.335,1.695.106l.678,7.391v.032a2.837,2.837,0,0,1-.911,1.758l-.021.021c-1.459,1.392-3.479,2.751-4.756,4.426a.343.343,0,0,0-.074.244l.339,3.388a.341.341,0,1,0,.678-.074l-.328-3.24c1.187-1.5,3.135-2.836,4.629-4.267l.021-.021a3.409,3.409,0,0,0,1.1-2.255q0-.016,0-.032l-.678-7.454a1.3,1.3,0,0,0-.041-.217,1.411,1.411,0,0,0-1.4-1.085Zm-11.1.191a4.076,4.076,0,0,1,.879,1.7.347.347,0,0,0,.254.254,4.069,4.069,0,0,1,1.716.879,4.074,4.074,0,0,1-1.716.868.346.346,0,0,0-.254.254,4.076,4.076,0,0,1-.879,1.7,4.077,4.077,0,0,1-.879-1.7.347.347,0,0,0-.254-.254,4.072,4.072,0,0,1-1.716-.868,4.072,4.072,0,0,1,1.716-.879.346.346,0,0,0,.254-.254A4.076,4.076,0,0,1,144.8,112.112ZM143.067,125.1a.351.351,0,0,0-.3.349v5.083a.339.339,0,1,0,.678,0v-5.083a.354.354,0,0,0-.381-.349Z" transform="translate(-101.084 -71.974)" fill="#fff" stroke="#fff" stroke-width="0.5"/>
  </g>
</svg>
