<svg xmlns="http://www.w3.org/2000/svg" width="82.07" height="75.761" viewBox="0 0 82.07 75.761">
  <path id="Path_402" data-name="Path 402" d="M154.571,106.488a1.062,1.062,0,0,0-.559.263,11.677,11.677,0,0,0-3.058,5.358,11.649,11.649,0,0,0-5.392,3.122,1.09,1.09,0,0,0,0,1.414,11.643,11.643,0,0,0,5.392,3.122,11.683,11.683,0,0,0,3.058,5.358,1.091,1.091,0,0,0,1.447,0,11.677,11.677,0,0,0,3.058-5.358,11.655,11.655,0,0,0,5.392-3.122,1.09,1.09,0,0,0,0-1.414,11.643,11.643,0,0,0-5.392-3.122,11.683,11.683,0,0,0-3.058-5.358,1.067,1.067,0,0,0-.888-.263Zm35.774,0a1.062,1.062,0,0,0-.559.263,11.677,11.677,0,0,0-3.058,5.358,11.649,11.649,0,0,0-5.392,3.122,1.09,1.09,0,0,0,0,1.414,11.643,11.643,0,0,0,5.392,3.122,11.684,11.684,0,0,0,3.058,5.358,1.091,1.091,0,0,0,1.447,0,11.678,11.678,0,0,0,3.058-5.358,11.654,11.654,0,0,0,5.392-3.122,1.089,1.089,0,0,0,0-1.414,11.643,11.643,0,0,0-5.392-3.122,11.683,11.683,0,0,0-3.058-5.358,1.067,1.067,0,0,0-.888-.263Zm-35.61,2.761a9.992,9.992,0,0,1,1.973,3.944,1.077,1.077,0,0,0,.789.789,9.97,9.97,0,0,1,3.979,1.972,10.023,10.023,0,0,1-3.979,1.972,1.074,1.074,0,0,0-.789.756,9.993,9.993,0,0,1-1.973,3.944,9.993,9.993,0,0,1-1.973-3.944,1.076,1.076,0,0,0-.789-.756,10.029,10.029,0,0,1-3.979-1.972,9.964,9.964,0,0,1,3.979-1.972,1.075,1.075,0,0,0,.789-.789A9.992,9.992,0,0,1,154.734,109.25Zm35.774,0a9.993,9.993,0,0,1,1.973,3.944,1.077,1.077,0,0,0,.789.789,9.97,9.97,0,0,1,3.979,1.972,10.023,10.023,0,0,1-3.979,1.972,1.074,1.074,0,0,0-.789.756,9.993,9.993,0,0,1-1.973,3.944,9.993,9.993,0,0,1-1.973-3.944,1.075,1.075,0,0,0-.789-.756,10.029,10.029,0,0,1-3.979-1.972,9.965,9.965,0,0,1,3.979-1.972,1.075,1.075,0,0,0,.789-.789A9.993,9.993,0,0,1,190.508,109.25Zm-18.052,11.965a1.062,1.062,0,0,0-.559.263,14.383,14.383,0,0,0-3.814,6.738,14.412,14.412,0,0,0-6.741,3.846,1.09,1.09,0,0,0,0,1.414,14.425,14.425,0,0,0,6.741,3.846,14.375,14.375,0,0,0,3.814,6.738,1.091,1.091,0,0,0,1.447,0,14.383,14.383,0,0,0,3.814-6.738,14.419,14.419,0,0,0,6.741-3.846,1.089,1.089,0,0,0,0-1.414,14.419,14.419,0,0,0-6.741-3.846,14.375,14.375,0,0,0-3.814-6.738,1.067,1.067,0,0,0-.888-.263Zm-34.295,2.17a4.424,4.424,0,0,0-4.472,3.977q-1.035,11.594-2.1,23.205,0,.048,0,.1c.028,3.527,2.463,5.955,3.42,7a.689.689,0,0,0,.066.065c4.639,4.442,10.686,8.576,14.369,13.246l-1.019,10.058a1.058,1.058,0,1,0,2.1.23l1.053-10.518a1.063,1.063,0,0,0-.23-.756c-3.966-5.2-10.235-9.418-14.764-13.739l-.066-.065c-1.018-1.113-2.762-3-2.828-5.456v-.1l2.1-22.942c.71-4.474,5.414-1.381,5.261-.329q-.512,10.029-1.053,20.082a1.066,1.066,0,0,0,.362.854l9.47,8.414a1.052,1.052,0,1,0,1.381-1.578l-8.05-7.164c0-.355-.022-.705-.005-1.481a4.835,4.835,0,0,1,1.973-3.846c1.04-.661,2.233-.724,3.682.427v-.032c5.474,4.53,8.845,6.854,11.114,8.447s3.33,2.384,4.472,3.977a12.3,12.3,0,0,1,.92,1.874,1.052,1.052,0,1,0,1.973-.723,9.377,9.377,0,0,0-1.184-2.366,18.177,18.177,0,0,0-4.965-4.47c-2.283-1.6-5.6-3.864-11.015-8.349a5.219,5.219,0,0,0-6.116-.559,5.941,5.941,0,0,0-1.644,1.808c.259-5.037.541-10.091.789-15.12.255-2.233-1.826-3.85-4.11-4.142a5.968,5.968,0,0,0-.887-.033Zm68.919,0a5.889,5.889,0,0,0-.888.033c-2.284.291-4.366,1.908-4.11,4.142q.381,7.56.789,15.12a5.932,5.932,0,0,0-1.644-1.808,5.219,5.219,0,0,0-6.116.559c-5.42,4.485-8.732,6.745-11.015,8.349a18.181,18.181,0,0,0-4.965,4.47c-2.518,3.432-2.294,9-2.3,11.11v15.811a1.053,1.053,0,1,0,2.105,0V165.391c.008-2.154.138-7.482,1.907-9.894v-.032c1.142-1.593,2.2-2.383,4.472-3.977s5.64-3.917,11.114-8.447v.032c1.45-1.152,2.643-1.088,3.682-.427a4.834,4.834,0,0,1,1.973,3.846c0,.566.007.883.007,1.47l-8.063,7.175a1.052,1.052,0,1,0,1.381,1.578l9.47-8.414a1.071,1.071,0,0,0,.362-.854c-.346-6.692-.716-13.4-1.053-20.082-.154-1.053,4.551-4.145,5.261.329l2.1,22.944v.1c-.066,2.457-1.809,4.343-2.828,5.456l-.066.065c-4.529,4.321-10.8,8.54-14.764,13.739a1.063,1.063,0,0,0-.23.756l1.053,10.518a1.058,1.058,0,1,0,2.1-.23L195.8,170.984c3.683-4.671,9.73-8.8,14.369-13.246.023-.021.045-.043.066-.065.956-1.047,3.392-3.474,3.42-7q0-.048,0-.1l-2.1-23.139a4.027,4.027,0,0,0-.128-.675,4.38,4.38,0,0,0-4.344-3.368Zm-34.458.592a12.651,12.651,0,0,1,2.729,5.292,1.078,1.078,0,0,0,.789.789,12.63,12.63,0,0,1,5.327,2.728,12.645,12.645,0,0,1-5.327,2.7,1.075,1.075,0,0,0-.789.789,12.652,12.652,0,0,1-2.729,5.292,12.656,12.656,0,0,1-2.729-5.292,1.077,1.077,0,0,0-.789-.789,12.64,12.64,0,0,1-5.327-2.7,12.639,12.639,0,0,1,5.327-2.728,1.075,1.075,0,0,0,.789-.789A12.652,12.652,0,0,1,172.621,123.975Zm-5.392,40.33a1.089,1.089,0,0,0-.92,1.085v15.778a1.053,1.053,0,1,0,2.105,0V165.39a1.1,1.1,0,0,0-1.184-1.085Z" transform="translate(-131.584 -106.474)" fill="#7aafc4"/>
</svg>
