<svg xmlns="http://www.w3.org/2000/svg" width="25.858" height="28.776" viewBox="0 0 25.858 28.776">
  <path id="Path_3128" data-name="Path 3128" d="M6.374,33.825c0-1.191-.036-2.989-.054-5.37-.054-2.381-.072-4.129-.072-5.244,0-2.229.054-4.1.145-5.725A36.13,36.13,0,0,1,7.008,12.6,13.53,13.53,0,0,1,8.349,8.545a7.189,7.189,0,0,1,2.283-2.533,5.97,5.97,0,0,1,3.461-.963l2.573,7.169a4.556,4.556,0,0,0-3.968,1.7c-.779,1.14-1.178,2.964-1.178,5.522h5.146V33.825Zm15.439,0c0-1.191-.018-2.989-.054-5.37s-.054-4.129-.054-5.244c0-2.229.036-4.1.145-5.725a36.13,36.13,0,0,1,.616-4.889,14.094,14.094,0,0,1,1.323-4.053,7.417,7.417,0,0,1,2.3-2.533,5.912,5.912,0,0,1,3.443-.963L32.1,12.218a4.52,4.52,0,0,0-3.95,1.7c-.8,1.14-1.178,2.964-1.178,5.522H32.1V33.825Z" transform="translate(-6.247 -5.049)" fill="#699ead" opacity="0.67"/>
</svg>
